<svg xmlns="http://www.w3.org/2000/svg" xmlns:xlink="http://www.w3.org/1999/xlink" width="100" zoomAndPan="magnify" viewBox="0 0 75 74.999997" height="100" preserveAspectRatio="xMidYMid meet" version="1.0"><defs><clipPath id="739188df0a"><path d="M 0.710938 0.710938 L 74.210938 0.710938 L 74.210938 74.210938 L 0.710938 74.210938 Z M 0.710938 0.710938 " clip-rule="nonzero"/></clipPath><clipPath id="b36c359076"><path d="M 20.960938 20.960938 L 53.960938 20.960938 L 53.960938 53.960938 L 20.960938 53.960938 Z M 20.960938 20.960938 " clip-rule="nonzero"/></clipPath></defs><g clip-path="url(#739188df0a)"><path fill="#ffffff" d="M 37.460938 74.210938 C 17.191406 74.210938 0.710938 57.734375 0.710938 37.460938 C 0.710938 17.191406 17.207031 0.710938 37.460938 0.710938 C 47.28125 0.710938 56.515625 4.535156 63.453125 11.472656 C 70.390625 18.410156 74.210938 27.644531 74.210938 37.460938 C 74.210938 57.734375 57.734375 74.210938 37.460938 74.210938 Z M 37.460938 3.109375 C 18.515625 3.109375 3.109375 18.515625 3.109375 37.460938 C 3.109375 56.410156 18.515625 71.816406 37.460938 71.816406 C 56.410156 71.816406 71.816406 56.410156 71.816406 37.460938 C 71.816406 28.289062 68.246094 19.660156 61.761719 13.164062 C 55.277344 6.664062 46.636719 3.109375 37.460938 3.109375 Z M 37.460938 3.109375 " fill-opacity="1" fill-rule="nonzero"/></g><g clip-path="url(#b36c359076)"><path fill="#ffffff" d="M 52.128906 35.628906 L 39.296875 35.628906 L 39.296875 22.796875 C 39.296875 22.550781 39.25 22.320312 39.15625 22.09375 C 39.0625 21.871094 38.929688 21.671875 38.757812 21.5 C 38.585938 21.328125 38.390625 21.195312 38.164062 21.101562 C 37.941406 21.007812 37.707031 20.960938 37.460938 20.960938 C 37.21875 20.960938 36.984375 21.007812 36.761719 21.101562 C 36.535156 21.195312 36.339844 21.328125 36.167969 21.5 C 35.996094 21.671875 35.863281 21.871094 35.769531 22.09375 C 35.675781 22.320312 35.628906 22.550781 35.628906 22.796875 L 35.628906 35.628906 L 22.796875 35.628906 C 22.550781 35.628906 22.320312 35.675781 22.09375 35.769531 C 21.871094 35.863281 21.671875 35.996094 21.5 36.167969 C 21.328125 36.339844 21.195312 36.535156 21.101562 36.761719 C 21.007812 36.984375 20.960938 37.21875 20.960938 37.460938 C 20.960938 37.707031 21.007812 37.941406 21.101562 38.164062 C 21.195312 38.390625 21.328125 38.585938 21.5 38.757812 C 21.671875 38.929688 21.871094 39.0625 22.09375 39.15625 C 22.320312 39.25 22.550781 39.296875 22.796875 39.296875 L 35.628906 39.296875 L 35.628906 52.128906 C 35.628906 52.371094 35.675781 52.605469 35.769531 52.832031 C 35.863281 53.054688 35.996094 53.253906 36.167969 53.425781 C 36.339844 53.597656 36.535156 53.730469 36.761719 53.824219 C 36.984375 53.914062 37.21875 53.960938 37.460938 53.960938 C 37.707031 53.960938 37.941406 53.914062 38.164062 53.824219 C 38.390625 53.730469 38.585938 53.597656 38.757812 53.425781 C 38.929688 53.253906 39.0625 53.054688 39.15625 52.832031 C 39.25 52.605469 39.296875 52.371094 39.296875 52.128906 L 39.296875 39.296875 L 52.128906 39.296875 C 52.371094 39.296875 52.605469 39.25 52.832031 39.15625 C 53.054688 39.0625 53.253906 38.929688 53.425781 38.757812 C 53.597656 38.585938 53.730469 38.390625 53.824219 38.164062 C 53.914062 37.941406 53.960938 37.707031 53.960938 37.460938 C 53.960938 37.21875 53.914062 36.984375 53.824219 36.761719 C 53.730469 36.535156 53.597656 36.339844 53.425781 36.167969 C 53.253906 35.996094 53.054688 35.863281 52.832031 35.769531 C 52.605469 35.675781 52.371094 35.628906 52.128906 35.628906 Z M 52.128906 35.628906 " fill-opacity="1" fill-rule="nonzero"/></g></svg>