<svg xmlns="http://www.w3.org/2000/svg" xmlns:xlink="http://www.w3.org/1999/xlink" width="100" zoomAndPan="magnify" viewBox="0 0 75 74.999997" height="100" preserveAspectRatio="xMidYMid meet" version="1.0"><defs><clipPath id="09960377d3"><path d="M 17.128906 10.335938 L 57.628906 10.335938 L 57.628906 64.335938 L 17.128906 64.335938 Z M 17.128906 10.335938 " clip-rule="nonzero"/></clipPath></defs><g clip-path="url(#09960377d3)"><path fill="#ffffff" d="M 54.800781 16.621094 L 47.539062 16.621094 L 47.539062 13.289062 C 47.539062 12.90625 47.46875 12.539062 47.320312 12.183594 C 47.171875 11.832031 46.964844 11.519531 46.695312 11.25 C 46.425781 10.976562 46.113281 10.769531 45.757812 10.625 C 45.40625 10.476562 45.039062 10.402344 44.65625 10.402344 L 30.195312 10.402344 C 29.8125 10.402344 29.445312 10.476562 29.09375 10.625 C 28.738281 10.769531 28.425781 10.976562 28.15625 11.25 C 27.886719 11.519531 27.675781 11.832031 27.53125 12.183594 C 27.382812 12.539062 27.3125 12.90625 27.3125 13.289062 L 27.3125 16.621094 L 20.050781 16.621094 C 19.667969 16.621094 19.300781 16.695312 18.949219 16.839844 C 18.59375 16.988281 18.28125 17.195312 18.011719 17.464844 C 17.742188 17.738281 17.53125 18.050781 17.386719 18.402344 C 17.238281 18.753906 17.167969 19.125 17.164062 19.507812 L 17.164062 21.621094 C 17.171875 21.839844 17.199219 22.054688 17.253906 22.265625 C 17.304688 22.476562 17.378906 22.679688 17.476562 22.875 C 17.574219 23.070312 17.6875 23.253906 17.824219 23.421875 C 17.960938 23.59375 18.113281 23.746094 18.28125 23.882812 C 18.453125 24.019531 18.632812 24.136719 18.828125 24.234375 C 19.023438 24.332031 19.222656 24.410156 19.433594 24.464844 C 19.644531 24.515625 19.859375 24.546875 20.078125 24.554688 C 20.296875 24.5625 20.511719 24.546875 20.726562 24.507812 L 22.429688 59.691406 C 22.441406 60 22.484375 60.300781 22.558594 60.597656 C 22.628906 60.894531 22.730469 61.183594 22.855469 61.460938 C 22.984375 61.742188 23.136719 62.003906 23.3125 62.253906 C 23.492188 62.503906 23.691406 62.734375 23.914062 62.945312 C 24.136719 63.15625 24.375 63.34375 24.632812 63.507812 C 24.890625 63.675781 25.160156 63.8125 25.445312 63.929688 C 25.730469 64.042969 26.023438 64.128906 26.324219 64.183594 C 26.625 64.242188 26.925781 64.269531 27.234375 64.269531 L 47.617188 64.269531 C 47.921875 64.269531 48.226562 64.242188 48.527344 64.183594 C 48.828125 64.125 49.121094 64.042969 49.40625 63.925781 C 49.691406 63.8125 49.960938 63.675781 50.21875 63.507812 C 50.476562 63.34375 50.714844 63.15625 50.9375 62.945312 C 51.160156 62.734375 51.359375 62.503906 51.535156 62.253906 C 51.714844 62.003906 51.867188 61.742188 51.992188 61.460938 C 52.121094 61.183594 52.21875 60.894531 52.292969 60.597656 C 52.363281 60.300781 52.40625 60 52.421875 59.695312 L 54.125 24.507812 C 54.339844 24.546875 54.554688 24.5625 54.773438 24.554688 C 54.988281 24.546875 55.203125 24.515625 55.414062 24.464844 C 55.625 24.410156 55.828125 24.332031 56.023438 24.234375 C 56.21875 24.136719 56.398438 24.019531 56.566406 23.882812 C 56.738281 23.746094 56.890625 23.59375 57.023438 23.421875 C 57.160156 23.253906 57.277344 23.070312 57.375 22.875 C 57.46875 22.679688 57.542969 22.476562 57.597656 22.265625 C 57.648438 22.054688 57.679688 21.839844 57.683594 21.621094 L 57.683594 19.507812 C 57.683594 19.125 57.609375 18.753906 57.464844 18.402344 C 57.316406 18.050781 57.109375 17.738281 56.839844 17.46875 C 56.566406 17.195312 56.257812 16.988281 55.902344 16.839844 C 55.550781 16.695312 55.183594 16.621094 54.800781 16.621094 Z M 29.234375 13.289062 C 29.234375 13.023438 29.328125 12.796875 29.515625 12.609375 C 29.703125 12.421875 29.929688 12.328125 30.195312 12.328125 L 44.65625 12.328125 C 44.921875 12.328125 45.148438 12.421875 45.335938 12.609375 C 45.523438 12.796875 45.617188 13.023438 45.617188 13.289062 L 45.617188 16.621094 L 29.234375 16.621094 Z M 50.5 59.601562 C 50.480469 59.972656 50.398438 60.324219 50.242188 60.660156 C 50.089844 61 49.878906 61.296875 49.609375 61.550781 C 49.339844 61.808594 49.035156 62.003906 48.691406 62.140625 C 48.347656 62.277344 47.988281 62.347656 47.617188 62.347656 L 27.234375 62.347656 C 26.863281 62.347656 26.503906 62.277344 26.160156 62.140625 C 25.816406 62.003906 25.511719 61.808594 25.242188 61.550781 C 24.972656 61.296875 24.761719 61 24.609375 60.660156 C 24.453125 60.324219 24.367188 59.96875 24.351562 59.601562 L 22.652344 24.507812 L 52.199219 24.507812 Z M 55.761719 21.621094 C 55.761719 21.886719 55.667969 22.113281 55.480469 22.300781 C 55.292969 22.488281 55.066406 22.582031 54.800781 22.585938 L 20.050781 22.585938 C 19.785156 22.582031 19.558594 22.488281 19.371094 22.300781 C 19.183594 22.113281 19.089844 21.886719 19.089844 21.621094 L 19.089844 19.507812 C 19.089844 19.242188 19.183594 19.015625 19.371094 18.824219 C 19.558594 18.636719 19.785156 18.542969 20.050781 18.542969 L 54.800781 18.542969 C 55.066406 18.542969 55.292969 18.636719 55.480469 18.824219 C 55.667969 19.015625 55.761719 19.242188 55.761719 19.507812 Z M 55.761719 21.621094 " fill-opacity="1" fill-rule="nonzero"/></g><path fill="#ffffff" d="M 37.425781 54.328125 C 37.691406 54.328125 37.917969 54.234375 38.105469 54.046875 C 38.292969 53.859375 38.386719 53.632812 38.386719 53.367188 L 38.386719 33.488281 C 38.386719 33.222656 38.292969 32.996094 38.105469 32.804688 C 37.917969 32.617188 37.691406 32.523438 37.425781 32.523438 C 37.160156 32.523438 36.933594 32.617188 36.746094 32.804688 C 36.558594 32.996094 36.464844 33.222656 36.464844 33.488281 L 36.464844 53.367188 C 36.464844 53.632812 36.558594 53.859375 36.746094 54.046875 C 36.933594 54.234375 37.160156 54.328125 37.425781 54.328125 Z M 37.425781 54.328125 " fill-opacity="1" fill-rule="nonzero"/><path fill="#ffffff" d="M 45.121094 54.328125 C 45.386719 54.328125 45.613281 54.234375 45.800781 54.046875 C 45.988281 53.859375 46.082031 53.632812 46.082031 53.367188 L 46.082031 33.488281 C 46.082031 33.222656 45.988281 32.996094 45.800781 32.804688 C 45.613281 32.617188 45.386719 32.523438 45.121094 32.523438 C 44.855469 32.523438 44.628906 32.617188 44.441406 32.804688 C 44.253906 32.996094 44.160156 33.222656 44.160156 33.488281 L 44.160156 53.367188 C 44.160156 53.632812 44.253906 53.859375 44.441406 54.046875 C 44.628906 54.234375 44.855469 54.328125 45.121094 54.328125 Z M 45.121094 54.328125 " fill-opacity="1" fill-rule="nonzero"/><path fill="#ffffff" d="M 29.730469 54.328125 C 29.996094 54.328125 30.222656 54.234375 30.410156 54.046875 C 30.597656 53.859375 30.691406 53.632812 30.691406 53.367188 L 30.691406 33.488281 C 30.691406 33.222656 30.597656 32.996094 30.410156 32.804688 C 30.222656 32.617188 29.996094 32.523438 29.730469 32.523438 C 29.464844 32.523438 29.238281 32.617188 29.050781 32.804688 C 28.863281 32.996094 28.769531 33.222656 28.769531 33.488281 L 28.769531 53.367188 C 28.769531 53.632812 28.863281 53.859375 29.050781 54.046875 C 29.238281 54.234375 29.464844 54.328125 29.730469 54.328125 Z M 29.730469 54.328125 " fill-opacity="1" fill-rule="nonzero"/></svg>