<svg xmlns="http://www.w3.org/2000/svg" xmlns:xlink="http://www.w3.org/1999/xlink" width="500" zoomAndPan="magnify" viewBox="0 0 375 374.999991" height="500" preserveAspectRatio="xMidYMid meet" version="1.0"><defs><clipPath id="2cbdb5dbb3"><path d="M 7.074219 7.074219 L 367.824219 7.074219 L 367.824219 367.824219 L 7.074219 367.824219 Z M 7.074219 7.074219 " clip-rule="nonzero"/></clipPath></defs><g clip-path="url(#2cbdb5dbb3)"><path fill="#fc4e20" d="M 309.921875 105.761719 L 324.265625 114.128906 C 326.945312 115.691406 330.476562 116.472656 334.003906 116.472656 C 337.535156 116.472656 341.0625 115.691406 343.742188 114.128906 L 358.085938 105.761719 C 363.441406 102.636719 367.824219 95.011719 367.824219 88.808594 L 367.824219 71.898438 C 367.824219 65.695312 363.441406 58.070312 358.085938 54.941406 L 343.742188 46.574219 C 341.0625 45.011719 337.535156 44.234375 334.003906 44.234375 C 330.476562 44.234375 326.945312 45.011719 324.265625 46.574219 L 309.921875 54.941406 C 304.566406 58.070312 300.183594 65.695312 300.183594 71.898438 L 300.183594 88.808594 C 300.183594 90.648438 300.609375 92.613281 301.289062 94.550781 L 207.246094 148.644531 C 205.988281 147.199219 204.59375 145.953125 203.109375 145.074219 L 160.515625 119.90625 C 159.609375 119.371094 158.574219 118.957031 157.503906 118.605469 L 157.503906 79.109375 C 158.988281 78.722656 160.390625 78.199219 161.605469 77.492188 L 175.949219 69.121094 C 181.308594 66 185.6875 58.371094 185.6875 52.171875 L 185.6875 35.257812 C 185.6875 29.058594 181.308594 21.429688 175.949219 18.304688 L 161.605469 9.9375 C 158.929688 8.375 155.398438 7.59375 151.867188 7.59375 C 148.339844 7.59375 144.808594 8.375 142.128906 9.9375 L 127.785156 18.304688 C 122.429688 21.429688 118.046875 29.058594 118.046875 35.257812 L 118.046875 52.171875 C 118.046875 58.371094 122.429688 66 127.785156 69.121094 L 142.128906 77.492188 C 143.34375 78.199219 144.746094 78.722656 146.230469 79.109375 L 146.230469 118.03125 C 144.359375 118.417969 142.597656 119.027344 141.105469 119.90625 L 98.511719 145.074219 C 93.175781 148.230469 88.808594 155.882812 88.808594 162.082031 L 88.808594 212.816406 C 88.808594 214 89.011719 215.238281 89.304688 216.484375 L 68.285156 228.570312 C 67.25 227.527344 66.144531 226.601562 64.976562 225.921875 L 50.632812 217.554688 C 47.953125 215.992188 44.425781 215.210938 40.894531 215.210938 C 37.363281 215.210938 33.835938 215.992188 31.15625 217.554688 L 16.8125 225.921875 C 11.457031 229.046875 7.074219 236.675781 7.074219 242.878906 L 7.074219 259.789062 C 7.074219 265.988281 11.457031 273.617188 16.8125 276.742188 L 31.15625 285.109375 C 33.835938 286.671875 37.363281 287.453125 40.894531 287.453125 C 44.425781 287.453125 47.953125 286.671875 50.632812 285.109375 L 64.976562 276.742188 C 70.332031 273.617188 74.714844 265.988281 74.714844 259.789062 L 74.714844 242.878906 C 74.714844 241.402344 74.453125 239.847656 74.003906 238.292969 L 94.550781 226.472656 C 95.765625 227.828125 97.101562 228.992188 98.511719 229.824219 L 141.105469 254.992188 C 142.597656 255.871094 144.359375 256.480469 146.230469 256.871094 L 146.230469 295.789062 C 144.746094 296.175781 143.34375 296.703125 142.128906 297.410156 L 127.785156 305.777344 C 122.429688 308.902344 118.046875 316.527344 118.046875 322.730469 L 118.046875 339.640625 C 118.046875 345.84375 122.429688 353.46875 127.785156 356.59375 L 142.128906 364.960938 C 144.808594 366.527344 148.339844 367.304688 151.867188 367.304688 C 155.398438 367.304688 158.929688 366.527344 161.605469 364.960938 L 175.949219 356.59375 C 181.308594 353.46875 185.6875 345.84375 185.6875 339.640625 L 185.6875 322.730469 C 185.6875 316.527344 181.308594 308.902344 175.949219 305.777344 L 161.605469 297.410156 C 160.390625 296.703125 158.988281 296.175781 157.503906 295.789062 L 157.503906 256.292969 C 158.574219 255.941406 159.609375 255.53125 160.515625 254.992188 L 203.109375 229.824219 C 204.265625 229.140625 205.363281 228.214844 206.398438 227.167969 L 297.808594 265.75 C 297.546875 266.917969 297.367188 268.074219 297.367188 269.183594 L 297.367188 286.09375 C 297.367188 292.296875 301.746094 299.921875 307.105469 303.046875 L 321.449219 311.414062 C 324.125 312.976562 327.65625 313.757812 331.1875 313.757812 C 334.714844 313.757812 338.246094 312.976562 340.925781 311.414062 L 355.269531 303.046875 C 360.625 299.921875 365.007812 292.296875 365.007812 286.09375 L 365.007812 269.183594 C 365.007812 262.980469 360.625 255.355469 355.269531 252.226562 L 340.925781 243.859375 C 338.246094 242.296875 334.714844 241.519531 331.1875 241.519531 C 327.65625 241.519531 324.125 242.296875 321.449219 243.859375 L 307.105469 252.226562 C 305.636719 253.085938 304.257812 254.296875 303.003906 255.707031 L 212.117188 217.347656 C 212.554688 215.808594 212.816406 214.273438 212.816406 212.816406 L 212.816406 162.082031 C 212.816406 160.988281 212.636719 159.847656 212.382812 158.695312 L 307.523438 103.972656 C 308.296875 104.652344 309.089844 105.277344 309.921875 105.761719 Z M 63.441406 259.789062 C 63.441406 261.988281 61.195312 265.898438 59.296875 267.003906 L 44.953125 275.371094 C 44.4375 275.671875 43.007812 276.179688 40.894531 276.179688 C 38.785156 276.179688 37.351562 275.671875 36.839844 275.371094 L 22.492188 267.003906 C 20.597656 265.898438 18.347656 261.988281 18.347656 259.789062 L 18.347656 242.878906 C 18.347656 240.679688 20.597656 236.769531 22.492188 235.660156 L 36.839844 227.292969 C 37.351562 226.992188 38.789062 226.484375 40.894531 226.484375 C 43.003906 226.484375 44.4375 226.992188 44.953125 227.292969 L 59.296875 235.660156 C 61.195312 236.769531 63.441406 240.679688 63.441406 242.878906 Z M 308.640625 269.183594 C 308.640625 266.984375 310.886719 263.074219 312.785156 261.964844 L 327.128906 253.597656 C 327.644531 253.300781 329.078125 252.792969 331.1875 252.792969 C 333.292969 252.792969 334.726562 253.300781 335.242188 253.597656 L 349.589844 261.964844 C 351.488281 263.074219 353.734375 266.984375 353.734375 269.183594 L 353.734375 286.09375 C 353.734375 288.292969 351.488281 292.203125 349.589844 293.308594 L 335.242188 301.675781 C 334.726562 301.976562 333.292969 302.484375 331.1875 302.484375 C 329.078125 302.484375 327.644531 301.976562 327.128906 301.675781 L 312.785156 293.308594 C 310.886719 292.203125 308.640625 288.292969 308.640625 286.09375 Z M 133.464844 59.386719 C 131.566406 58.277344 129.320312 54.367188 129.320312 52.171875 L 129.320312 35.257812 C 129.320312 33.0625 131.566406 29.148438 133.464844 28.042969 L 147.8125 19.675781 C 148.324219 19.375 149.761719 18.867188 151.867188 18.867188 C 153.976562 18.867188 155.410156 19.375 155.925781 19.675781 L 170.269531 28.042969 C 172.167969 29.148438 174.414062 33.0625 174.414062 35.257812 L 174.414062 52.171875 C 174.414062 54.367188 172.167969 58.277344 170.269531 59.386719 L 155.925781 67.753906 C 155.414062 68.054688 153.980469 68.558594 151.867188 68.558594 C 149.757812 68.558594 148.324219 68.054688 147.8125 67.753906 Z M 170.269531 315.515625 C 172.167969 316.621094 174.414062 320.53125 174.414062 322.730469 L 174.414062 339.640625 C 174.414062 341.839844 172.167969 345.75 170.269531 346.859375 L 155.925781 355.226562 C 155.410156 355.523438 153.976562 356.03125 151.867188 356.03125 C 149.761719 356.03125 148.324219 355.523438 147.8125 355.226562 L 133.464844 346.859375 C 131.566406 345.75 129.320312 341.839844 129.320312 339.640625 L 129.320312 322.730469 C 129.320312 320.53125 131.566406 316.621094 133.464844 315.515625 L 147.8125 307.148438 C 148.324219 306.847656 149.761719 306.339844 151.867188 306.339844 C 153.976562 306.339844 155.410156 306.847656 155.925781 307.148438 Z M 201.542969 212.816406 C 201.542969 215.035156 199.28125 218.992188 197.375 220.117188 L 154.78125 245.289062 C 154.28125 245.585938 152.878906 246.085938 150.8125 246.085938 C 148.746094 246.085938 147.34375 245.585938 146.84375 245.285156 L 104.246094 220.121094 C 102.339844 218.992188 100.082031 215.035156 100.082031 212.816406 L 100.082031 162.082031 C 100.082031 159.867188 102.339844 155.910156 104.246094 154.78125 L 146.84375 129.613281 C 147.34375 129.316406 148.746094 128.816406 150.8125 128.816406 C 152.878906 128.816406 154.28125 129.316406 154.78125 129.613281 L 197.375 154.78125 C 199.28125 155.910156 201.542969 159.867188 201.542969 162.082031 Z M 311.457031 71.898438 C 311.457031 69.699219 313.703125 65.789062 315.601562 64.679688 L 329.949219 56.3125 C 330.460938 56.015625 331.898438 55.507812 334.003906 55.507812 C 336.113281 55.507812 337.546875 56.015625 338.0625 56.3125 L 352.40625 64.679688 C 354.304688 65.789062 356.550781 69.699219 356.550781 71.898438 L 356.550781 88.808594 C 356.550781 91.007812 354.304688 94.917969 352.40625 96.023438 L 338.0625 104.390625 C 337.550781 104.691406 336.117188 105.199219 334.003906 105.199219 C 331.894531 105.199219 330.460938 104.691406 329.949219 104.390625 L 315.601562 96.023438 C 313.703125 94.917969 311.457031 91.007812 311.457031 88.808594 Z M 311.457031 71.898438 " fill-opacity="1" fill-rule="nonzero"/></g></svg>