<svg xmlns="http://www.w3.org/2000/svg" xmlns:xlink="http://www.w3.org/1999/xlink" width="100" zoomAndPan="magnify" viewBox="0 0 75 74.999997" height="100" preserveAspectRatio="xMidYMid meet" version="1.0"><defs><clipPath id="fdf3a6ba2f"><path d="M 0.710938 0.710938 L 74.210938 0.710938 L 74.210938 74.210938 L 0.710938 74.210938 Z M 0.710938 0.710938 " clip-rule="nonzero"/></clipPath><clipPath id="be91915d32"><path d="M 41 41 L 53.960938 41 L 53.960938 53.960938 L 41 53.960938 Z M 41 41 " clip-rule="nonzero"/></clipPath></defs><g clip-path="url(#fdf3a6ba2f)"><path fill="#ffffff" d="M 37.460938 74.210938 C 17.191406 74.210938 0.710938 57.734375 0.710938 37.460938 C 0.710938 17.191406 17.207031 0.710938 37.460938 0.710938 C 47.28125 0.710938 56.515625 4.535156 63.453125 11.472656 C 70.390625 18.410156 74.210938 27.644531 74.210938 37.460938 C 74.210938 57.734375 57.734375 74.210938 37.460938 74.210938 Z M 37.460938 3.109375 C 18.515625 3.109375 3.109375 18.515625 3.109375 37.460938 C 3.109375 56.410156 18.515625 71.816406 37.460938 71.816406 C 56.410156 71.816406 71.816406 56.410156 71.816406 37.460938 C 71.816406 28.289062 68.246094 19.660156 61.761719 13.164062 C 55.277344 6.664062 46.636719 3.109375 37.460938 3.109375 Z M 37.460938 3.109375 " fill-opacity="1" fill-rule="nonzero"/></g><path fill="#ffffff" d="M 34.589844 47.3125 C 34.074219 47.3125 33.5625 47.28125 33.050781 47.21875 C 32.539062 47.15625 32.03125 47.0625 31.53125 46.9375 C 31.03125 46.8125 30.539062 46.65625 30.058594 46.472656 C 29.578125 46.285156 29.109375 46.074219 28.652344 45.828125 C 28.199219 45.585938 27.761719 45.316406 27.339844 45.019531 C 26.917969 44.722656 26.515625 44.402344 26.132812 44.054688 C 25.75 43.707031 25.390625 43.339844 25.054688 42.949219 C 24.714844 42.558594 24.402344 42.148438 24.117188 41.71875 C 23.832031 41.292969 23.570312 40.847656 23.339844 40.386719 C 23.109375 39.925781 22.90625 39.453125 22.730469 38.964844 C 22.558594 38.480469 22.414062 37.984375 22.300781 37.480469 C 22.1875 36.980469 22.105469 36.472656 22.054688 35.957031 C 22.003906 35.445312 21.984375 34.929688 21.996094 34.414062 C 22.011719 33.898438 22.054688 33.386719 22.128906 32.875 C 22.207031 32.363281 22.3125 31.859375 22.449219 31.363281 C 22.589844 30.867188 22.753906 30.378906 22.953125 29.902344 C 23.152344 29.425781 23.375 28.964844 23.632812 28.515625 C 23.886719 28.066406 24.167969 27.632812 24.472656 27.21875 C 24.78125 26.804688 25.113281 26.410156 25.46875 26.039062 C 25.824219 25.664062 26.203125 25.316406 26.601562 24.988281 C 27 24.660156 27.417969 24.359375 27.851562 24.082031 C 28.289062 23.808594 28.738281 23.558594 29.207031 23.339844 C 29.671875 23.117188 30.152344 22.925781 30.640625 22.765625 C 31.128906 22.605469 31.628906 22.472656 32.132812 22.371094 C 32.640625 22.273438 33.152344 22.203125 33.664062 22.164062 C 34.179688 22.128906 34.695312 22.121094 35.210938 22.148438 C 35.726562 22.171875 36.238281 22.230469 36.746094 22.316406 C 37.253906 22.40625 37.753906 22.527344 38.246094 22.675781 C 38.742188 22.824219 39.222656 23.003906 39.695312 23.214844 C 40.167969 23.425781 40.625 23.660156 41.066406 23.925781 C 41.507812 24.191406 41.933594 24.484375 42.339844 24.800781 C 42.746094 25.121094 43.128906 25.460938 43.496094 25.824219 C 44.375 26.707031 45.109375 27.695312 45.699219 28.792969 C 46.285156 29.890625 46.699219 31.050781 46.945312 32.273438 C 47.1875 33.492188 47.246094 34.722656 47.125 35.960938 C 47.003906 37.203125 46.703125 38.398438 46.226562 39.546875 C 45.75 40.699219 45.117188 41.753906 44.328125 42.714844 C 43.539062 43.679688 42.625 44.503906 41.589844 45.195312 C 40.554688 45.886719 39.4375 46.414062 38.246094 46.773438 C 37.054688 47.136719 35.835938 47.316406 34.589844 47.3125 Z M 34.589844 24.90625 C 34.214844 24.90625 33.839844 24.925781 33.46875 24.96875 C 33.09375 25.011719 32.726562 25.074219 32.359375 25.15625 C 31.992188 25.242188 31.632812 25.347656 31.277344 25.472656 C 30.925781 25.597656 30.578125 25.746094 30.242188 25.910156 C 29.90625 26.074219 29.578125 26.261719 29.261719 26.464844 C 28.945312 26.667969 28.640625 26.886719 28.351562 27.125 C 28.058594 27.363281 27.785156 27.617188 27.523438 27.886719 C 27.261719 28.15625 27.015625 28.4375 26.785156 28.734375 C 26.558594 29.035156 26.34375 29.34375 26.152344 29.664062 C 25.957031 29.988281 25.78125 30.320312 25.628906 30.660156 C 25.472656 31.003906 25.335938 31.351562 25.222656 31.710938 C 25.105469 32.066406 25.011719 32.429688 24.9375 32.800781 C 24.863281 33.167969 24.8125 33.539062 24.78125 33.914062 C 24.75 34.289062 24.738281 34.664062 24.75 35.039062 C 24.761719 35.414062 24.796875 35.789062 24.851562 36.160156 C 24.90625 36.53125 24.980469 36.898438 25.078125 37.261719 C 25.175781 37.625 25.292969 37.980469 25.429688 38.328125 C 25.566406 38.679688 25.722656 39.019531 25.902344 39.351562 C 26.078125 39.683594 26.273438 40.003906 26.484375 40.3125 C 26.699219 40.621094 26.929688 40.917969 27.175781 41.199219 C 27.425781 41.484375 27.6875 41.75 27.964844 42.003906 C 28.242188 42.253906 28.535156 42.492188 28.839844 42.710938 C 29.144531 42.929688 29.460938 43.128906 29.789062 43.3125 C 30.121094 43.496094 30.457031 43.660156 30.804688 43.804688 C 31.152344 43.949219 31.503906 44.070312 31.867188 44.175781 C 32.226562 44.277344 32.59375 44.359375 32.964844 44.421875 C 33.335938 44.484375 33.707031 44.523438 34.082031 44.542969 C 34.457031 44.558594 34.832031 44.558594 35.207031 44.53125 C 35.582031 44.507812 35.953125 44.460938 36.324219 44.394531 C 36.695312 44.328125 37.058594 44.242188 37.417969 44.132812 C 37.777344 44.023438 38.128906 43.894531 38.476562 43.742188 C 38.820312 43.59375 39.15625 43.425781 39.480469 43.238281 C 39.804688 43.050781 40.117188 42.84375 40.421875 42.621094 C 40.722656 42.398438 41.011719 42.15625 41.285156 41.898438 C 41.558594 41.644531 41.816406 41.371094 42.0625 41.085938 C 42.304688 40.796875 42.53125 40.5 42.738281 40.1875 C 42.945312 39.875 43.136719 39.550781 43.308594 39.214844 C 43.480469 38.882812 43.632812 38.539062 43.765625 38.1875 C 43.898438 37.835938 44.007812 37.476562 44.101562 37.113281 C 44.191406 36.75 44.261719 36.382812 44.308594 36.007812 C 44.359375 35.636719 44.386719 35.261719 44.390625 34.886719 C 44.398438 34.511719 44.382812 34.136719 44.34375 33.761719 C 44.308594 33.386719 44.25 33.015625 44.171875 32.648438 C 44.089844 32.28125 43.992188 31.921875 43.871094 31.566406 C 43.75 31.210938 43.609375 30.863281 43.445312 30.523438 C 43.285156 30.183594 43.105469 29.855469 42.90625 29.535156 C 42.710938 29.214844 42.492188 28.910156 42.257812 28.617188 C 42.027344 28.320312 41.777344 28.042969 41.507812 27.777344 C 40.59375 26.859375 39.535156 26.152344 38.335938 25.652344 C 37.136719 25.15625 35.890625 24.90625 34.589844 24.90625 Z M 34.589844 24.90625 " fill-opacity="1" fill-rule="nonzero"/><g clip-path="url(#be91915d32)"><path fill="#ffffff" d="M 52.441406 53.960938 C 52.058594 53.960938 51.734375 53.824219 51.464844 53.554688 L 41.539062 43.632812 C 41.40625 43.503906 41.308594 43.355469 41.238281 43.183594 C 41.167969 43.015625 41.132812 42.839844 41.132812 42.65625 C 41.132812 42.472656 41.167969 42.292969 41.238281 42.125 C 41.308594 41.957031 41.40625 41.804688 41.539062 41.675781 C 41.667969 41.546875 41.816406 41.445312 41.988281 41.375 C 42.15625 41.304688 42.332031 41.269531 42.515625 41.269531 C 42.699219 41.269531 42.875 41.304688 43.046875 41.375 C 43.214844 41.445312 43.367188 41.546875 43.496094 41.675781 L 53.414062 51.601562 C 53.613281 51.800781 53.738281 52.035156 53.792969 52.308594 C 53.847656 52.585938 53.820312 52.851562 53.714844 53.109375 C 53.605469 53.367188 53.4375 53.570312 53.207031 53.726562 C 52.976562 53.882812 52.71875 53.960938 52.441406 53.960938 Z M 52.441406 53.960938 " fill-opacity="1" fill-rule="nonzero"/></g></svg>