<svg xmlns="http://www.w3.org/2000/svg" xmlns:xlink="http://www.w3.org/1999/xlink" width="100" zoomAndPan="magnify" viewBox="0 0 75 74.999997" height="100" preserveAspectRatio="xMidYMid meet" version="1.0"><defs><clipPath id="4b7c653f07"><path d="M 13.171875 13.171875 L 61.921875 13.171875 L 61.921875 61.921875 L 13.171875 61.921875 Z M 13.171875 13.171875 " clip-rule="nonzero"/></clipPath></defs><g clip-path="url(#4b7c653f07)"><path fill="#fe4d20" d="M 39.273438 37.589844 L 61.429688 15.511719 C 61.921875 15.019531 61.921875 14.28125 61.429688 13.789062 C 60.9375 13.296875 60.199219 13.296875 59.707031 13.789062 L 37.546875 35.867188 L 15.472656 13.707031 C 14.980469 13.214844 14.238281 13.214844 13.746094 13.707031 C 13.253906 14.199219 13.253906 14.9375 13.746094 15.429688 L 35.824219 37.589844 L 13.664062 59.667969 C 13.171875 60.160156 13.171875 60.898438 13.664062 61.390625 C 14.15625 61.882812 14.980469 61.882812 15.390625 61.390625 L 37.546875 39.3125 L 59.625 61.390625 C 59.871094 61.636719 60.199219 61.71875 60.527344 61.71875 C 60.855469 61.71875 61.183594 61.554688 61.429688 61.390625 C 61.921875 60.898438 61.921875 60.160156 61.429688 59.667969 Z M 39.273438 37.589844 " fill-opacity="1" fill-rule="nonzero"/></g></svg>