<svg xmlns="http://www.w3.org/2000/svg" xmlns:xlink="http://www.w3.org/1999/xlink" width="75" zoomAndPan="magnify" viewBox="0 0 56.25 56.249997" height="75" preserveAspectRatio="xMidYMid meet" version="1.0"><defs><g/><clipPath id="5dff471022"><path d="M 0 0 L 55.511719 0 L 55.511719 55.511719 L 0 55.511719 Z M 0 0 " clip-rule="nonzero"/></clipPath></defs><g clip-path="url(#5dff471022)"><path fill="#ffffff" d="M 0 0 L 56.25 0 L 56.25 63.652344 L 0 63.652344 Z M 0 0 " fill-opacity="1" fill-rule="nonzero"/><path fill="#ffffff" d="M 0 0 L 55.511719 0 L 55.511719 55.511719 L 0 55.511719 Z M 0 0 " fill-opacity="1" fill-rule="nonzero"/><path fill="#000000" d="M 0 0 L 55.511719 0 L 55.511719 55.511719 L 0 55.511719 Z M 0 0 " fill-opacity="1" fill-rule="nonzero"/></g><g fill="#ffffff" fill-opacity="1"><g transform="translate(8.3876, 32.078135)"><g><path d="M 1.941406 -24.285156 L 1.941406 0 L 3.886719 0 L 3.886719 -10.441406 L 13.113281 -10.441406 C 19.304688 -10.441406 20.691406 -14.933594 20.691406 -17.363281 C 20.691406 -19.792969 19.304688 -24.285156 13.113281 -24.285156 Z M 3.886719 -12.140625 L 3.886719 -22.148438 C 3.886719 -23.457031 4.296875 -23.796875 5.171875 -23.796875 C 6.191406 -23.796875 9.058594 -23.820312 10.976562 -23.820312 C 15.832031 -23.820312 18.382812 -21.320312 18.382812 -17.363281 C 18.382812 -13.40625 15.832031 -10.925781 10.976562 -10.925781 L 5.097656 -10.925781 C 4.371094 -10.925781 3.886719 -11.414062 3.886719 -12.140625 Z M 3.886719 -12.140625 "/></g></g></g><g fill="#ffffff" fill-opacity="1"><g transform="translate(30.391228, 46.62131)"><g><path d="M 9.566406 0.484375 C 12.847656 0.484375 14.765625 -0.996094 15.882812 -3.328125 L 15.371094 -3.617188 C 14.546875 -1.796875 12.820312 -0.242188 10.125 -0.242188 C 6.652344 -0.242188 4.324219 -2.550781 3.546875 -6.410156 C 3.398438 -7.089844 3.835938 -7.550781 4.589844 -7.527344 C 4.855469 -7.527344 5.125 -7.527344 5.441406 -7.527344 C 10.585938 -7.527344 15.445312 -10.152344 15.445312 -13.71875 C 15.445312 -16.195312 12.652344 -17.289062 10.152344 -17.289062 C 5.246094 -17.289062 1.214844 -13.28125 1.214844 -8.449219 C 1.214844 -2.960938 4.710938 0.484375 9.566406 0.484375 Z M 3.300781 -9.179688 C 3.398438 -13.039062 5.851562 -16.804688 10.054688 -16.804688 C 11.851562 -16.804688 13.476562 -15.636719 13.476562 -13.550781 C 13.476562 -10.152344 8.597656 -7.917969 5.414062 -7.917969 C 4.929688 -7.917969 4.515625 -7.964844 4.175781 -8.011719 C 3.667969 -8.085938 3.277344 -8.621094 3.300781 -9.179688 Z M 3.300781 -9.179688 "/></g></g></g><path stroke-linecap="butt" transform="matrix(0.521083, -0.521083, 0.523352, 0.523352, 10.952517, 43.579999)" fill="none" stroke-linejoin="miter" d="M 0.00238132 0.498873 L 61.270521 0.498873 " stroke="#ffffff" stroke-width="1" stroke-opacity="1" stroke-miterlimit="4"/></svg>